<svg width="19" height="19" viewBox="0 0 19 19" fill="none" xmlns="http://www.w3.org/2000/svg">
<path d="M1.55525 17.4447H2.69577L14.1787 5.9618L13.0382 4.82128L1.55525 16.3042V17.4447ZM17.4707 4.8472L14.1528 1.52933L15.2415 0.440655C15.5352 0.146885 15.8981 0 16.3301 0C16.7622 0 17.1251 0.146885 17.4188 0.440655L18.5593 1.58117C18.8531 1.87494 19 2.23784 19 2.66985C19 3.10186 18.8531 3.46476 18.5593 3.75853L17.4707 4.8472ZM16.382 5.93588L3.31787 19H0V15.6821L13.0641 2.61801L16.382 5.93588ZM13.6085 5.39154L13.0382 4.82128L14.1787 5.9618L13.6085 5.39154Z" fill="#003049"/>
</svg>
